<svg
          width="1818"
          height="495"
          viewBox="0 0 1818 495"
          fill="none"
          xmlns="http://www.w3.org/2000/svg"
        >
          <g clip-path="url(#clip0_57_32)">
            <path
              d="M0 0H70.5835V494.085H0V0ZM289.392 494.085H86.1119V490.556C86.1119 482.556 87.5236 474.557 90.3469 466.557C93.6408 458.558 98.1111 451.499 103.758 445.382C109.875 438.794 117.404 433.618 126.345 429.854C135.756 425.619 146.814 423.501 159.519 423.501H289.392V494.085Z"
              fill="white"
            />
            <path
              d="M602.758 0H673.393V314.676C673.393 343.991 667.977 369.87 657.147 392.314C646.787 414.3 632.895 432.851 615.472 447.967C598.52 463.082 578.977 474.533 556.845 482.32C534.713 490.107 512.345 494 489.742 494C468.08 494 446.89 490.336 426.17 483.007C405.451 475.678 387.086 464.685 371.075 450.028C355.065 435.371 342.115 416.82 332.226 394.376C322.337 371.473 317.393 344.907 317.393 314.676V0H388.027V314.676C388.027 332.998 391.088 349.029 397.21 362.771C403.332 376.512 411.337 388.192 421.226 397.811C431.586 406.972 443.123 413.842 455.837 418.423C469.022 423.003 482.207 425.293 495.393 425.293C509.049 425.293 522.234 423.003 534.948 418.423C547.662 413.842 558.964 406.972 568.853 397.811C579.213 388.192 587.453 376.512 593.575 362.771C599.697 349.029 602.758 332.998 602.758 314.676V0Z"
              fill="white"
            />
            <path
              d="M701.393 0H771.976L993.608 341.624V0H1064.19V494.085H993.608L771.976 152.46V494.085H701.393V0Z"
              fill="white"
            />
            <path
              d="M1092.19 494.085V0H1381.58V70.5836H1162.78V423.501H1381.58V494.085H1092.19ZM1343.47 211.751V282.334H1178.3V278.805C1178.3 270.806 1179.72 262.806 1182.54 254.807C1185.83 246.807 1190.3 239.749 1195.95 233.632C1202.07 227.044 1209.6 221.868 1218.54 218.103C1227.95 213.868 1239.01 211.751 1251.71 211.751H1343.47Z"
              fill="white"
            />
            <path
              d="M1745.99 494.791C1747.87 472.674 1746.93 448.911 1743.16 423.501C1739.87 398.091 1733.05 374.563 1722.69 352.918C1712.34 331.272 1697.99 313.391 1679.64 299.274C1661.76 284.687 1638.93 277.393 1611.17 277.393C1593.29 277.393 1577.53 280.922 1563.88 287.981C1550.23 294.569 1538.23 303.509 1527.88 314.803C1518 326.096 1509.77 339.272 1503.18 354.329C1496.59 369.387 1491.41 384.916 1487.65 400.914C1484.36 416.913 1482.24 433.148 1481.3 449.617C1480.36 465.616 1480.59 480.674 1482 494.791H1410.71C1408.83 470.322 1409.3 445.853 1412.13 421.384C1415.42 396.915 1420.83 373.622 1428.36 351.506C1436.36 328.919 1446.48 308.215 1458.71 289.392C1471.42 270.57 1486.24 254.571 1503.18 241.396C1486.71 228.691 1472.36 213.398 1460.12 195.516C1448.36 177.635 1438.48 158.107 1430.48 136.932C1422.95 115.757 1417.54 93.6408 1414.24 70.5836C1410.95 47.0557 1409.77 23.5278 1410.71 0H1481.3C1479.89 20.7045 1481.06 43.056 1484.83 67.0544C1488.59 91.0528 1495.65 113.404 1506 134.109C1516.35 154.343 1530 171.283 1546.94 184.929C1564.35 198.575 1585.76 205.398 1611.17 205.398C1637.52 205.398 1659.64 198.81 1677.52 185.635C1695.4 172.459 1709.52 155.754 1719.87 135.52C1730.69 115.286 1738.22 93.1703 1742.46 69.1719C1746.69 44.7029 1748.1 21.6456 1746.69 0H1817.27C1818.22 23.5278 1817.04 47.0557 1813.75 70.5836C1810.45 93.6408 1804.81 115.757 1796.81 136.932C1788.81 158.107 1778.69 177.635 1766.45 195.516C1754.22 213.398 1739.63 228.691 1722.69 241.396C1740.1 254.571 1755.16 270.57 1767.87 289.392C1780.57 308.215 1790.69 328.919 1798.22 351.506C1806.22 373.622 1811.63 396.915 1814.45 421.384C1817.75 445.853 1818.45 470.322 1816.57 494.791H1745.99Z"
              fill="white"
            />
          </g>
          <defs>
            <clipPath id="clip0_57_32">
              <rect width="1817.6" height="494.791" fill="white" />
            </clipPath>
          </defs>
        </svg>